<?xml version="1.0" standalone="no"?>
<!DOCTYPE svg PUBLIC "-//W3C//DTD SVG 20010904//EN"
 "http://www.w3.org/TR/2001/REC-SVG-20010904/DTD/svg10.dtd">
<svg version="1.0" xmlns="http://www.w3.org/2000/svg"
 width="320.000000pt" height="320.000000pt" viewBox="0 0 320.000000 320.000000"
 preserveAspectRatio="xMidYMid meet">
<metadata>
Created by potrace 1.14, written by Peter Selinger 2001-2017
</metadata>
<g transform="translate(0.000000,320.000000) scale(0.100000,-0.100000)"
fill="#000000" stroke="none">
<path d="M1900 2119 l-755 -749 -300 300 -300 300 -258 -258 -258 -259 556
-554 c306 -305 559 -555 563 -557 4 -1 462 452 1017 1008 l1010 1010 -255 255
c-140 140 -257 255 -260 254 -3 0 -345 -337 -760 -750z m1222 254 c17 -21 7
-32 -979 -1013 l-996 -992 -543 543 -544 544 242 242 243 243 302 -302 303
-303 752 752 753 753 225 -223 c124 -122 233 -232 242 -244z"/>
</g>
</svg>
